<svg width="291" height="253" viewBox="0 0 291 253" fill="none" xmlns="http://www.w3.org/2000/svg">
<path d="M0 168.526V37.0256V26.5256C1.16667 17.6923 9.3 0.0256215 32.5 0.0256215C55.7 0.0256215 64.5 17.6923 66 26.5256V155.026H41.5L89 209.526L137 155.026H112V26.5256C113.5 17.6923 122.1 0.0256215 144.5 0.0256215C166.9 0.0256215 176.167 17.6923 178 26.5256V118.026H152L201 173.526L249 118.026H224V26.5256C226.167 17.359 236.1 -0.774378 258.5 0.0256215C280.9 0.825622 289.167 20.0256 290.5 29.5256V168.526C290.5 203.026 261.5 242.526 218 251.026C183.2 257.826 154.5 241.526 144.5 232.526C145 233.026 116.5 257.45 76 251.026C17.5 241.746 1.16667 192.192 0 168.526Z" fill="white"/>
</svg>
