<svg width="190" height="148" viewBox="0 0 190 148" fill="none" xmlns="http://www.w3.org/2000/svg">
<path d="M143.991 0V87.2836C143.991 95.5332 140.904 102.899 134.73 109.381C127.82 116.452 119.074 119.987 108.489 119.987V101.868C116.427 101.868 121.646 98.4059 124.145 91.4821C124.88 89.2724 125.248 87.0627 125.248 84.853V0H143.991ZM98.5664 101.868V119.987C87.3941 119.693 78.5738 115.789 72.1057 108.276C64.7554 115.789 55.9352 119.693 45.6449 119.987V101.868C53.5831 101.868 58.8753 98.4059 61.5213 91.4821C62.2564 89.4197 62.6239 87.21 62.6239 84.853V0H81.3669V84.853C81.3669 92.366 84.5275 97.522 90.8487 100.321C93.2008 101.352 95.7734 101.868 98.5664 101.868ZM35.7221 101.868V119.987C21.7567 119.987 11.3928 114.242 4.63064 102.752C1.54355 97.4483 0 92.2923 0 87.2836V0H18.7431V84.853C18.7431 92.9552 22.1242 98.2585 28.8864 100.763C30.9444 101.499 33.223 101.868 35.7221 101.868Z" fill="white"/>
<path d="M153.777 129.409V113.552C156.689 113.552 160.208 112.276 164.334 109.725C170.766 105.715 173.982 100.125 173.982 92.9564V35.908C173.982 30.9261 171.919 26.248 167.793 21.8737C163.909 17.8639 159.237 15.7982 153.777 15.6767V0.00207118C166.276 -0.119438 176.227 5.10545 183.629 15.6767C187.876 21.8737 190 27.6454 190 32.9918V92.9564C189.879 106.322 183.022 116.772 169.431 124.306L179.806 139.434L167.065 148L153.777 129.409Z" fill="white"/>
</svg>
